<svg width="21" height="20" viewBox="0 0 21 20" fill="none" xmlns="http://www.w3.org/2000/svg">
<path d="M7.35748 10L7.35748 6.66667C7.35748 4.82572 8.84987 3.33333 10.6908 3.33333V3.33333C12.5318 3.33333 14.0241 4.82572 14.0241 6.66667L14.0241 10" stroke="#292929" stroke-linecap="round"/>
<path d="M3.71848 11.1678C3.86355 9.42692 3.93609 8.55647 4.51018 8.02824C5.08426 7.5 5.95773 7.5 7.70466 7.5H13.6769C15.4239 7.5 16.2973 7.5 16.8714 8.02824C17.4455 8.55647 17.518 9.42692 17.6631 11.1678L18.0103 15.3339C18.0947 16.3474 18.137 16.8542 17.8399 17.1771C17.5428 17.5 17.0342 17.5 16.0172 17.5H5.3644C4.34734 17.5 3.83882 17.5 3.54171 17.1771C3.24461 16.8542 3.28684 16.3474 3.3713 15.3339L3.71848 11.1678Z" stroke="#292929"/>
</svg>
