<svg width="21" height="20" viewBox="0 0 21 20" fill="none" xmlns="http://www.w3.org/2000/svg">
<path d="M4.39979 11.5903L10.1936 17.033C10.3388 17.1694 10.4114 17.2376 10.4903 17.2721C10.6182 17.3282 10.7636 17.3282 10.8915 17.2721C10.9704 17.2376 11.043 17.1694 11.1882 17.033L16.982 11.5903C18.6121 10.059 18.8101 7.539 17.4391 5.77189L17.1813 5.43961C15.5411 3.32565 12.2489 3.68018 11.0965 6.09487C10.9337 6.43596 10.4481 6.43596 10.2853 6.09487C9.13287 3.68017 5.84066 3.32565 4.20052 5.43962L3.94272 5.77189C2.57169 7.539 2.76964 10.059 4.39979 11.5903Z" stroke="#292929"/>
</svg>
