<svg width="14" height="14" viewBox="0 0 14 14" fill="none" xmlns="http://www.w3.org/2000/svg">
<g clip-path="url(#clip0_855_395)">
<path d="M13.7881 10.9252L8.3534 1.51203C8.07091 1.02274 7.56494 0.730652 6.99999 0.730652C6.43504 0.730652 5.92907 1.02277 5.64658 1.51203L0.211867 10.9252C-0.0706222 11.4145 -0.0706222 11.9987 0.211867 12.488C0.494355 12.9773 1.0003 13.2694 1.56528 13.2694H12.4347C12.9997 13.2694 13.5057 12.9773 13.7881 12.488C14.0706 11.9987 14.0706 11.4145 13.7881 10.9252ZM13.0772 12.0775C12.9431 12.3098 12.7029 12.4485 12.4347 12.4485H1.56528C1.29709 12.4485 1.0569 12.3098 0.922806 12.0775C0.788712 11.8453 0.788712 11.5679 0.922806 11.3357L6.35752 1.92246C6.49164 1.6902 6.7318 1.55154 6.99999 1.55154C7.26818 1.55154 7.50837 1.6902 7.64246 1.92246L13.0772 11.3357C13.2113 11.5679 13.2113 11.8453 13.0772 12.0775Z" fill="#C82020"/>
<path d="M6.99998 9.71204C6.69822 9.71204 6.4527 9.95756 6.4527 10.2593C6.4527 10.5611 6.69822 10.8066 6.99998 10.8066C7.30175 10.8066 7.54727 10.5611 7.54727 10.2593C7.54727 9.95756 7.30175 9.71204 6.99998 9.71204Z" fill="#C82020"/>
<path d="M7.41042 4.64966H6.58951V8.89109H7.41042V4.64966Z" fill="#C82020"/>
</g>
<defs>
<clipPath id="clip0_855_395">
<rect width="14" height="14" fill="white"/>
</clipPath>
</defs>
</svg>
