<svg width="68" height="32" viewBox="0 0 68 32" fill="none" xmlns="http://www.w3.org/2000/svg">
<rect x="0.5" y="0.5" width="67" height="31" rx="3.5" fill="white"/>
<rect x="0.5" y="0.5" width="67" height="31" rx="3.5" stroke="#E9E9E9"/>
<path d="M15.7648 16.8552H12.8175V19.5295H15.7648V16.8552Z" fill="#A70584"/>
<path d="M15.7529 13.2264H12.8056V15.9232H15.7529V13.2264Z" fill="#36B588"/>
<path d="M11.8233 16.8215H8.87598V19.5183H11.8233V16.8215Z" fill="#FAD05B"/>
<path d="M24.5521 13.0569C24.5521 14.9177 22.9163 16.4099 20.809 16.4099H19.2027V19.4842H16.7564V9.70398H20.8041C22.9163 9.70398 24.5521 11.2007 24.5521 13.0569ZM22.1107 13.0569C22.1107 12.3423 21.5605 11.7984 20.8139 11.7984H19.2076V14.3154H20.8139C21.5605 14.3154 22.1107 13.7716 22.1107 13.0569Z" fill="#292929"/>
<path d="M33.0797 12.3108V19.4841H30.7268V18.8099C30.211 19.3538 29.4398 19.6864 28.3886 19.6864C26.3353 19.6864 24.6406 18.0369 24.6406 15.8974C24.6406 13.758 26.3353 12.1085 28.3886 12.1085C29.4398 12.1085 30.2061 12.4366 30.7268 12.985V12.3108H33.0797ZM30.7268 15.8974C30.7268 14.8232 29.9408 14.1446 28.8601 14.1446C27.7795 14.1446 26.9935 14.8187 26.9935 15.8974C26.9935 16.9761 27.7795 17.6503 28.8601 17.6503C29.9408 17.6458 30.7268 16.9716 30.7268 15.8974Z" fill="#292929"/>
<path d="M42.0149 12.3108L39.3525 19.2234C38.4781 21.4887 37.0929 22.3876 34.9119 22.2887V20.2931C36.0024 20.2931 36.5182 19.9785 36.8571 19.1111L33.7625 12.3108H36.3315L38.0606 16.6705L39.5244 12.3108H42.0149Z" fill="#292929"/>
<path d="M50.724 13.0569C50.724 14.9177 49.0883 16.4099 46.9809 16.4099H45.3747V19.4842H42.9284V9.70398H46.976C49.0883 9.70398 50.724 11.2007 50.724 13.0569ZM48.2827 13.0569C48.2827 12.3423 47.7325 11.7984 46.9859 11.7984H45.3796V14.3154H46.9859C47.7325 14.3154 48.2827 13.7716 48.2827 13.0569Z" fill="#292929"/>
<path d="M51.0287 15.9964C51.0287 13.9155 52.8315 12.3064 55.0764 12.3064C57.3212 12.3064 59.124 13.9155 59.124 15.9964C59.124 18.0774 57.3212 19.6865 55.0764 19.6865C52.8315 19.6865 51.0287 18.0774 51.0287 15.9964ZM56.8349 15.9964C56.8349 15.0031 56.0686 14.3469 55.0764 14.3469C54.0841 14.3469 53.3178 15.0031 53.3178 15.9964C53.3178 16.9897 54.0841 17.6459 55.0764 17.6459C56.0686 17.6459 56.8349 16.9897 56.8349 15.9964Z" fill="#292929"/>
</svg>
